<svg xmlns="http://www.w3.org/2000/svg" width="32.666" height="32.486" viewBox="0 0 32.67 32.49"><path fill="#63d1bb" class="cls-1" d="M2.9 32.49h12.5V18.58H2.9zM31.08 8.87h-7.34a10.81 10.81 0 0 0 1.4-.87 5.06 5.06 0 0 0 2.42-4 3.87 3.87 0 0 0-1.36-2.9 4.64 4.64 0 0 0-3-1.12 6 6 0 0 0-3.32 1.07 10.62 10.62 0 0 0-3.42 4.07l-.12.23a11.9 11.9 0 0 0-1-1.79 9.74 9.74 0 0 0-2.49-2.51A6 6 0 0 0 9.46 0a4.62 4.62 0 0 0-3.15 1.29A4.35 4.35 0 0 0 4.9 4.43a4.12 4.12 0 0 0 .65 2.19 6.53 6.53 0 0 0 2.63 2.25H1.59A1.59 1.59 0 0 0 0 10.46v5.89h15.4V8.86h1.87v7.49h15.39v-5.89a1.57 1.57 0 0 0-1.57-1.59M8.71 6.53a3.78 3.78 0 0 1-1.22-1.14 1.73 1.73 0 0 1-.29-1A2 2 0 0 1 7.89 3a2.36 2.36 0 0 1 1.56-.7 3.69 3.69 0 0 1 2 .68 8.33 8.33 0 0 1 2.65 3.19 10.6 10.6 0 0 1 .78 2.09 14.89 14.89 0 0 1-6.17-1.73M19.25 4.9A7.36 7.36 0 0 1 21.14 3a3.69 3.69 0 0 1 2.05-.68 2.32 2.32 0 0 1 1.5.55A1.58 1.58 0 0 1 25.26 4c0 .51-.27 1.26-1.47 2.13a15.73 15.73 0 0 1-6.13 2.27 10.67 10.67 0 0 1 1.59-3.5m-2 27.59h12.53V18.58H17.27z"/></svg>