<svg xmlns="http://www.w3.org/2000/svg" width="60" height="59.62"><path fill="#149080" class="cls-1" d="M0 43.68l27.44 15.94V36.27L0 20.33v23.35zm51.35-31.24v2.45c0 1.82-3.46 3.29-7.73 3.29s-7.73-1.47-7.73-3.29v-4.06c.26 1.72 3.61 3.07 7.7 3.07 4.28 0 7.73-1.47 7.73-3.28s-3.45-3.29-7.73-3.29h-1l-5-2.89v3.12c0 1.82-3.46 3.29-7.73 3.29a12.6 12.6 0 0 1-6.43-1.47 3.73 3.73 0 0 0-.73-.58 1.84 1.84 0 0 1-.57-1.24v-3l-4.8 2.8h-1.06c-4.26 0-7.72 1.47-7.72 3.29s3.46 3.29 7.72 3.29c4.1 0 7.45-1.36 7.71-3.08v4.06c0 1.82-3.45 3.29-7.73 3.29s-7.65-1.5-7.65-3.32v-2.42l-6 3.46 27.54 16L57.53 16l-6.18-3.59zM37.7 22.6c0 1.82-3.46 3.29-7.73 3.29s-7.72-1.47-7.72-3.29v-4.06c.26 1.72 3.6 3.08 7.7 3.08s7.45-1.36 7.71-3.08v4.06zm-5.14 13.88v23.14L60 43.68V20.54L32.56 36.48zM29.92 6.57c4.26 0 7.72-1.47 7.72-3.28S34.18 0 29.92 0s-7.73 1.47-7.73 3.29 3.46 3.28 7.73 3.28"/></svg>