<svg xmlns="http://www.w3.org/2000/svg" width="60" height="59.62" viewBox="0 0 60 59.62"><path fill="#149080" class="cls-1" d="M0,43.68,27.44,59.62V36.27L0,20.33V43.68ZM51.35,12.44v2.45c0,1.82-3.46,3.29-7.73,3.29s-7.73-1.47-7.73-3.29V10.83h0c.26,1.72,3.61,3.07,7.7,3.07,4.28,0,7.73-1.47,7.73-3.28s-3.45-3.29-7.73-3.29c-.33,0-.67,0-1,0l-5-2.89V7.56c0,1.82-3.46,3.29-7.73,3.29a12.6,12.6,0,0,1-6.43-1.47,3.73,3.73,0,0,0-.73-.58,1.84,1.84,0,0,1-.57-1.24v-3l-4.8,2.8-1.06,0c-4.26,0-7.72,1.47-7.72,3.29s3.46,3.29,7.72,3.29c4.1,0,7.45-1.36,7.71-3.08h0v4.06c0,1.82-3.45,3.29-7.73,3.29S8.6,16.71,8.6,14.89V12.47l-6,3.46,27.54,16L57.53,16l-6.18-3.59ZM37.7,22.6c0,1.82-3.46,3.29-7.73,3.29s-7.72-1.47-7.72-3.29V18.54h0c.26,1.72,3.6,3.08,7.7,3.08s7.45-1.36,7.71-3.08h0V22.6ZM32.56,36.48V59.62L60,43.68V20.54L32.56,36.48ZM29.92,6.57c4.26,0,7.72-1.47,7.72-3.28S34.18,0,29.92,0s-7.73,1.47-7.73,3.29,3.46,3.28,7.73,3.28"/></svg>
